#!OML:ASF H:\BabyWalks\Project 1\Capture day 1\Session 1\baby.ASF
:FULLY-SPECIFIED
:DEGREES
308
root -14.456 17.6151 8.00082 3.34209 48.132 -1.77018
lowerback 21.7006 1.3936 7.31827
upperback 4.82326 4.12405 5.6033
thorax -6.75019 1.9988 0.810897
lowerneck 4.54741 8.19421 13.3007
upperneck -20.0812 9.54845 -22.5025
head -4.6805 5.7213 -10.0006
rclavicle 2.14687e-014 -3.65764e-014
rhumerus -38.9666 7.49157 -70.4051
rradius 49.4783
rwrist -6.53261
rhand -17.1864 -18.7394
rfingers 7.12502
rthumb 9.05545 -48.525
lclavicle 2.14687e-014 -3.65764e-014
lhumerus -53.7945 -14.3532 88.9997
lradius 44.1532
lwrist -0.522162
lhand 8.60255 14.0839
lfingers 7.12502
lthumb 33.7997 40.9119
rfemur -15.3877 6.44516 22.6572
rtibia 34.5952
rfoot -17.1984 9.36397
rtoes 4.20179
lfemur -30.3203 0.752402 -12.0701
ltibia 43.8026
lfoot -20.2011 -18.8968
ltoes -9.45391
309
root -14.3818 17.6364 8.06083 3.08621 47.9146 -1.92119
lowerback 21.7054 1.58052 7.44132
upperback 4.82036 4.39937 5.66182
thorax -6.74281 2.12961 0.733314
lowerneck 4.5859 8.17567 13.3849
upperneck -19.8006 9.5566 -22.5413
head -4.59432 5.71719 -10.0093
rclavicle -3.18055e-015 -4.29375e-014
rhumerus -38.756 7.59655 -70.1621
rradius 50.0626
rwrist -6.796
rhand -17.0135 -18.6729
rfingers 7.12502
rthumb 9.22228 -48.4512
lclavicle -3.18055e-015 -4.29375e-014
lhumerus -54.5334 -14.1818 88.7924
lradius 44.1542
lwrist -0.338517
lhand 9.16852 14.2812
lfingers 7.12502
lthumb 34.3373 40.9894
rfemur -14.4797 6.59212 22.8037
rtibia 33.7448
rfoot -17.015 9.40175
rtoes 4.30052
lfemur -30.2171 0.316602 -12.0143
ltibia 41.7595
lfoot -19.5232 -18.2956
ltoes -9.14432
310
root -14.307 17.6567 8.12081 2.83657 47.693 -2.07418
lowerback 21.6943 1.75906 7.56424
upperback 4.8197 4.66022 5.70641
thorax -6.72299 2.25373 0.645458
lowerneck 4.6155 8.16206 13.4631
upperneck -19.5303 9.5716 -22.5615
head -4.51031 5.71519 -10.0107
rclavicle -7.87187e-014 -6.99722e-014
rhumerus -38.5341 7.69873 -69.9591
rradius 50.6218
rwrist -7.00872
rhand -16.8076 -18.6895
rfingers 7.12502
rthumb 9.42102 -48.4589
lclavicle -7.87187e-014 -6.99722e-014
lhumerus -55.2287 -14.0232 88.5492
lradius 44.1762
lwrist -0.164095
lhand 9.71484 14.4664
lfingers 7.12502
lthumb 34.8558 41.056
rfemur -13.5731 6.74397 22.9526
rtibia 32.881
rfoot -16.8311 9.4281
rtoes 4.3707
lfemur -30.1027 -0.21663 -11.9114
ltibia 39.7183
lfoot -18.7724 -17.6862
ltoes -8.87523
311
root -14.2318 17.6754 8.18075 2.59261 47.4669 -2.23447
lowerback 21.6652 1.92855 7.69115
upperback 4.81575 4.9069 5.73852
thorax -6.69548 2.371 0.546713
lowerneck 4.66312 8.1496 13.5291
upperneck -19.2859 9.58854 -22.5604
head -4.43942 5.71451 -10.0061
rclavicle -5.56597e-014 -1.59028e-015
rhumerus -38.3066 7.80854 -69.7995
rradius 51.1436
rwrist -7.18224
rhand -16.5939 -18.7576
rfingers 7.12502
rthumb 9.62722 -48.5176
lclavicle -5.56597e-014 -1.59028e-015
lhumerus -55.8885 -13.8721 88.2758
lradius 44.2151
lwrist -0.00384485
lhand 10.2161 14.6297
lfingers 7.12502
lthumb 35.3312 41.1078
rfemur -12.677 6.89973 23.1072
rtibia 32.0146
rfoot -16.6542 9.44485
rtoes 4.41846
lfemur -29.9875 -0.843485 -11.7572
ltibia 37.7026
lfoot -17.9762 -17.0529
ltoes -8.63762
312
root -14.1562 17.6921 8.24061 2.35601 47.2416 -2.40482
lowerback 21.6129 2.08792 7.82583
upperback 4.81098 5.13804 5.75862
thorax -6.65441 2.48104 0.43633
lowerneck 4.7116 8.13935 13.5909
upperneck -19.062 9.6076 -22.5476
head -4.37562 5.71473 -9.99834
rclavicle 4.85035e-014 -3.18055e-015
rhumerus -38.0656 7.9287 -69.6853
rradius 51.6228
rwrist -7.32799
rhand -16.3923 -18.8737
rfingers 7.12502
rthumb 9.82168 -48.6246
lclavicle 4.85035e-014 -3.18055e-015
lhumerus -56.504 -13.7324 87.975
lradius 44.2689
lwrist 0.149914
lhand 10.705 14.7952
lfingers 7.12502
lthumb 35.7947 41.1619
rfemur -11.7995 7.05578 23.2697
rtibia 31.1556
rfoot -16.4901 9.45087
rtoes 4.44728
lfemur -29.885 -1.56567 -11.5496
ltibia 35.7383
lfoot -17.1639 -16.3764
ltoes -8.42201
313
root -14.0804 17.7067 8.30045 2.14436 47.0069 -2.56996
lowerback 21.5332 2.24318 7.94976
upperback 4.80288 5.35686 5.76665
thorax -6.60178 2.58557 0.324018
lowerneck 4.76349 8.13307 13.6429
upperneck -18.8518 9.63157 -22.521
head -4.31733 5.71738 -9.98536
rclavicle -9.06458e-014 1.90833e-014
rhumerus -37.8225 8.07284 -69.6177
rradius 52.0648
rwrist -7.45939
rhand -16.2232 -19.0138
rfingers 7.12502
rthumb 9.98482 -48.7569
lclavicle -9.06458e-014 1.90833e-014
lhumerus -57.0753 -13.5993 87.6533
lradius 44.3268
lwrist 0.304159
lhand 11.1602 14.941
lfingers 7.12502
lthumb 36.2259 41.2016
rfemur -10.9557 7.22249 23.4284
rtibia 30.3175
rfoot -16.3421 9.44605
rtoes 4.44691
lfemur -29.8077 -2.35871 -11.3037
ltibia 33.8527
lfoot -16.3832 -15.6365
ltoes -8.22625
